<svg xmlns="http://www.w3.org/2000/svg" viewBox="0 0 750 500"><g id="freepik--background-complete--inject-45"><path d="M649.84,379.34c-9.87.1-34.82.35-44.36.41l-14.89,0h-.45v-.46l0-18.63v-.5h.5c14.77,0,44.49.14,59.25.27h.24v.23l-.24,18.63Zm0,0-.23-18.63.23.23-29.62.2-29.63.07.5-.5,0,18.63-.46-.46,14.74,0c9.4.07,34.79.32,44.51.42Z" style="fill:#ebebeb"></path><path d="M616.79,402.83c-9.87.1-34.82.35-44.36.41l-14.89,0h-.45v-.45L557,384.2v-.5h.5c14.77,0,44.49.13,59.25.26H617v.23l-.23,18.63Zm0,0-.23-18.63.23.23-29.62.2-29.63.07.5-.5,0,18.63-.46-.46,14.74,0c9.4.07,34.79.32,44.51.42Z" style="fill:#ebebeb"></path><path d="M424.39,402.83c-9.87.1-34.82.35-44.36.41l-14.89,0h-.45v-.45l-.05-18.63v-.5h.5c14.77,0,44.49.13,59.25.26h.24v.23l-.24,18.63Zm0,0-.23-18.63.23.23-29.62.2-29.63.07.5-.5,0,18.63-.46-.46,14.74,0c9.4.07,34.79.32,44.51.42Z" style="fill:#ebebeb"></path><path d="M159.24,379.46c-9.87.1-34.82.35-44.36.42l-14.89,0h-.45v-.46l-.05-18.62v-.5h.5c14.77,0,44.49.13,59.25.26h.24v.24l-.24,18.62Zm0,0L159,360.84l.23.23-29.62.2-29.63.07.5-.5,0,18.62L100,379l14.74,0c9.4.07,34.79.32,44.51.41Z" style="fill:#ebebeb"></path><rect x="66.94" y="384.33" width="59.25" height="18.63" style="fill:#ebebeb"></rect><rect x="623.64" y="384.2" width="59.25" height="18.63" style="fill:#ebebeb"></rect><path d="M682.89,225.05c-9.87.1-34.82.35-44.36.41l-14.89,0h-.45v-.45l-.05-18.63v-.5h.5c14.77,0,44.49.14,59.25.27h.24v.23l-.24,18.63Zm0,0-.23-18.63.23.23-29.62.2-29.63.07.5-.5,0,18.63-.46-.46,14.74,0c9.4.07,34.79.32,44.51.42Z" style="fill:#ebebeb"></path><path d="M533.19,60.55c-9.87.1-34.82.35-44.36.42l-14.89,0h-.45v-.46l-.05-18.63v-.5h.5c14.77,0,44.49.13,59.25.26h.24v.23l-.23,18.63Zm0,0L533,41.92l.23.24-29.62.2-29.63.06.5-.5,0,18.63-.46-.45,14.74,0c9.4.06,34.79.31,44.51.41Z" style="fill:#ebebeb"></path><rect x="440.89" y="65.41" width="59.25" height="18.63" style="fill:#ebebeb"></rect><path d="M566.24,84c-9.87.1-34.82.35-44.36.41L507,84.5h-.45V84l-.05-18.63v-.5h.5c14.77,0,44.49.14,59.25.27h.24v.23L566.24,84Zm0,0L566,65.41l.23.24-29.62.19L507,65.91l.5-.5,0,18.63-.46-.46,14.74,0c9.4.06,34.79.31,44.51.41Z" style="fill:#ebebeb"></path><path d="M125,60.55c-9.87.1-34.82.35-44.36.42L65.76,61h-.45v-.46l0-18.63v-.5h.5c14.77,0,44.49.13,59.25.26h.24v.23L125,60.55Zm0,0-.23-18.63.23.24-29.62.2-29.63.06.5-.5,0,18.63-.46-.45,14.74,0c9.4.06,34.79.31,44.51.41Z" style="fill:#ebebeb"></path></g><g id="freepik--CPU--inject-45"><rect x="514.82" y="74.73" width="152.3" height="341.73" style="fill:#FFC727"></rect><rect x="514.82" y="74.73" width="152.3" height="341.73" style="fill:#fff;opacity:0.5"></rect><rect x="514.82" y="416.46" width="23.4" height="10.6" style="fill:#FFC727"></rect><rect x="514.82" y="416.46" width="23.4" height="10.6" style="fill:#fff;opacity:0.5"></rect><polygon points="538.22 416.46 514.82 416.46 514.82 421.91 538.22 419.91 538.22 416.46" style="fill:#FFC727;opacity:0.4"></polygon><rect x="643.72" y="416.46" width="23.4" height="10.6" transform="translate(1310.84 843.52) rotate(180)" style="fill:#FFC727"></rect><rect x="643.72" y="416.46" width="23.4" height="10.6" transform="translate(1310.84 843.52) rotate(180)" style="fill:#fff;opacity:0.5"></rect><polygon points="643.72 416.46 667.12 416.46 667.12 421.91 643.72 419.91 643.72 416.46" style="fill:#FFC727;opacity:0.4"></polygon><rect x="524.13" y="83.45" width="133.67" height="31.52" style="fill:#fff;opacity:0.5"></rect><rect x="524.13" y="118.45" width="133.67" height="52.74" style="fill:#fff;opacity:0.5"></rect><rect x="524.13" y="174.66" width="133.67" height="28.29" style="fill:#fff;opacity:0.5"></rect><rect x="524.13" y="206.42" width="133.67" height="190.79" style="fill:#fff;opacity:0.5"></rect><rect x="530" y="88.09" width="7.81" height="5.1" style="fill:#FFC727"></rect><rect x="644.13" y="88.09" width="7.81" height="5.1" style="fill:#FFC727"></rect><rect x="560.54" y="88.09" width="7.81" height="5.1" style="fill:#FFC727"></rect><rect x="542.28" y="88.09" width="13.3" height="5.1" style="fill:#FFC727"></rect></g><g id="freepik--Monitor--inject-45"><rect x="93.74" y="81" width="397.9" height="282.01" style="fill:#263238"></rect><rect x="112.88" y="99.34" width="359.62" height="222.51" style="fill:#37474f"></rect><g style="opacity:0.5"><polygon points="171.36 99.34 112.88 157.82 112.88 140.56 154.1 99.34 171.36 99.34" style="fill:#455a64"></polygon><polygon points="472.5 152.81 472.5 170.07 320.72 321.85 303.46 321.85 472.5 152.81" style="fill:#455a64"></polygon><polygon points="295.78 99.34 112.88 282.24 112.88 229.84 243.38 99.34 295.78 99.34" style="fill:#455a64"></polygon><polygon points="472.5 181.68 472.5 234.08 384.74 321.85 332.33 321.85 472.5 181.68" style="fill:#455a64"></polygon><polygon points="315.57 99.34 112.88 302.03 112.88 296.55 310.09 99.34 315.57 99.34" style="fill:#455a64"></polygon><polygon points="472.5 279.92 472.5 285.42 436.07 321.85 430.57 321.85 472.5 279.92" style="fill:#455a64"></polygon></g><rect x="93.74" y="341.42" width="397.9" height="21.6" style="fill:#FFC727"></rect><rect x="93.74" y="341.42" width="397.9" height="21.6" style="fill:#fff;opacity:0.7000000000000001"></rect><rect x="211.87" y="413.86" width="161.63" height="13.51" style="fill:#FFC727"></rect><rect x="211.87" y="413.86" width="161.63" height="13.51" style="fill:#fff;opacity:0.5"></rect><polygon points="338.46 413.87 246.92 413.87 249.85 384.32 251.97 363.02 286.65 363.02 286.35 381.81 286.22 389.6 299.16 389.6 299.02 380.94 298.74 363.02 333.42 363.02 334.95 378.47 338.46 413.87" style="fill:#FFC727"></polygon><polygon points="338.46 413.87 246.92 413.87 249.85 384.32 251.97 363.02 286.65 363.02 286.35 381.81 286.22 389.6 299.16 389.6 299.02 380.94 298.74 363.02 333.42 363.02 334.95 378.47 338.46 413.87" style="fill:#fff;opacity:0.7000000000000001"></polygon><polygon points="251.97 363.02 286.65 363.02 286.35 381.81 249.85 384.32 251.97 363.02" style="fill:#FFC727;opacity:0.4"></polygon><polygon points="334.95 378.47 299.02 380.94 298.74 363.02 333.42 363.02 334.95 378.47" style="fill:#FFC727;opacity:0.4"></polygon></g><g id="freepik--Plant--inject-45"><path d="M133.58,300.26s-.9-15.2,5.77-13.76c2.32.5,1.58,6.67-1.89,10.44,4.27-2.83,10.49-2.57,10.62-.2C148.44,303.55,133.58,300.26,133.58,300.26Z" style="fill:#FFC727"></path><path d="M133.58,300.26s-.9-15.2,5.77-13.76c2.32.5,1.58,6.67-1.89,10.44,4.27-2.83,10.49-2.57,10.62-.2C148.44,303.55,133.58,300.26,133.58,300.26Z" style="opacity:0.2"></path><path d="M133.58,300.26c-4.76-5.59-3.21-14.06.09-14.69,3.75-.72,2.08,9.37,2.08,9.37s6.8-9,10.1-5.15-6.68,9.16-6.68,9.16,10.22-.05,8.92,3.54C147,305.65,138.33,305.84,133.58,300.26Z" style="fill:#FFC727"></path><path d="M149.11,338a94.09,94.09,0,0,1-1.94,12.52c-1.81,8.19-4.79,16.15-9,21.47a78.85,78.85,0,0,1-27.62,5.21A78.78,78.78,0,0,1,82.88,372c-9.11-11.37-12.35-34.76-11-46.79,2.34-21.73,15.32-30,26.59-33h0a48,48,0,0,1,12.07-1.54c11,0,35.37,4,38.67,34.56A67.68,67.68,0,0,1,149.11,338Z" style="fill:#455a64"></path><path d="M149.11,338a94.09,94.09,0,0,1-1.94,12.52c-1.81,8.19-4.79,16.15-9,21.47a78.85,78.85,0,0,1-27.62,5.21A78.78,78.78,0,0,1,82.88,372c-9.11-11.37-12.35-34.76-11-46.79,2.34-21.73,15.32-30,26.59-33h0a48,48,0,0,1,12.07-1.54c11,0,35.37,4,38.67,34.56A67.68,67.68,0,0,1,149.11,338Z" style="fill:#fff;opacity:0.2"></path><path d="M139,319.71a49.48,49.48,0,0,1-1,6.25c-.91,4.1-2.4,8.08-4.53,10.74a37.92,37.92,0,0,1-27.6,0c-4.55-5.69-6.18-17.38-5.53-23.39,1.17-10.86,7.66-15,13.29-16.5h0a23.68,23.68,0,0,1,6-.77c5.52,0,17.67,2,19.32,17.27A34.18,34.18,0,0,1,139,319.71Z" style="fill:#fff;opacity:0.1"></path><path d="M111.3,290.63c.31,7.21.48,14.43.62,21.65s.17,14.43.2,21.65-.07,14.44-.29,21.66-.36,14.46-1.51,21.6l.28-2.69.15-2.7c.12-1.8.12-3.61.18-5.41q.13-5.4.15-10.82c.06-7.21.1-14.43.06-21.64l0-21.65C111.19,305.07,111.21,297.85,111.3,290.63Z" style="fill:#37474f"></path><path d="M106.61,290.78A89.52,89.52,0,0,0,104,301.26c-.72,3.52-1.25,7.08-1.7,10.65a206.31,206.31,0,0,0-1.49,21.51l0,5.39c0,1.8.06,3.6.09,5.39,0,3.6.32,7.19.49,10.78.07,1.8.25,3.59.41,5.39l.48,5.38,1.22,10.73c-.59-3.55-1.17-7.11-1.7-10.68l-.61-5.38c-.21-1.79-.43-3.58-.55-5.38-.29-3.6-.55-7.2-.63-10.81,0-1.8-.15-3.61-.14-5.41l0-5.42a185.66,185.66,0,0,1,1.72-21.59A104.42,104.42,0,0,1,106.61,290.78Z" style="fill:#37474f"></path><path d="M100.35,291.67a44.93,44.93,0,0,0-5.47,9.53c-.36.85-.75,1.68-1.08,2.53l-.93,2.59-.46,1.3c-.13.44-.25.88-.37,1.32l-.74,2.65a84.91,84.91,0,0,0-2.49,21.77l.12,5.49.53,5.48.27,2.74c.13.9.31,1.8.46,2.71l.93,5.43a27.4,27.4,0,0,0,.58,2.69l.65,2.68,1.31,5.35,3.26,10.55c-1.27-3.45-2.48-6.93-3.72-10.41l-1.44-5.34L91,358.05c-.24-.89-.49-1.78-.64-2.69l-1-5.45c-.16-.91-.35-1.81-.49-2.72l-.29-2.76L88,338.91l-.17-5.55a82.59,82.59,0,0,1,2.75-22l.81-2.66c.14-.44.26-.89.41-1.33l.5-1.29,1-2.59c.35-.86.77-1.69,1.15-2.52A43,43,0,0,1,100.35,291.67Z" style="fill:#37474f"></path><path d="M95.75,292.92a40.26,40.26,0,0,0-7.46,8.29A49.32,49.32,0,0,0,83,311a57.12,57.12,0,0,0-4.19,21.72c-.07,1.86.08,3.72.14,5.57.21,1.85.3,3.71.62,5.54l.43,2.76.56,2.74c.18.91.37,1.82.62,2.72l.68,2.71c.47,1.8,1.06,3.57,1.59,5.36l1.87,5.28,2.08,5.2,2.28,5.13A110,110,0,0,1,81.1,355c-.48-1.81-1.06-3.6-1.4-5.45l-.59-2.76L78.66,344c-.35-1.85-.46-3.73-.68-5.6s-.24-3.76-.18-5.64a56.26,56.26,0,0,1,4.48-22,49.07,49.07,0,0,1,5.62-9.76,45.3,45.3,0,0,1,3.64-4.29A31,31,0,0,1,95.75,292.92Z" style="fill:#37474f"></path><path d="M115.7,290.83a105.79,105.79,0,0,1,5,21,185.66,185.66,0,0,1,1.72,21.59v5.42c0,1.8-.1,3.61-.14,5.41-.07,3.61-.34,7.21-.63,10.81-.11,1.8-.33,3.59-.54,5.39l-.61,5.37c-.53,3.57-1.11,7.13-1.7,10.68l1.22-10.73.48-5.38c.16-1.8.34-3.59.41-5.39.17-3.59.46-7.18.49-10.78,0-1.79.12-3.59.09-5.39l-.06-5.39A203.59,203.59,0,0,0,120,312c-.45-3.57-1-7.13-1.7-10.65A89.52,89.52,0,0,0,115.7,290.83Z" style="fill:#37474f"></path><path d="M122,291.72a42.25,42.25,0,0,1,5.91,9.34c.39.84.8,1.66,1.16,2.52l1,2.59.5,1.29c.15.44.27.89.41,1.33l.8,2.66a82.18,82.18,0,0,1,2.75,22l-.16,5.55-.58,5.52-.3,2.76c-.13.91-.32,1.82-.48,2.72l-1,5.45a25.07,25.07,0,0,1-.65,2.69l-.72,2.68-1.44,5.34c-1.24,3.48-2.46,7-3.72,10.41L128.65,366l1.3-5.35.66-2.68a24.73,24.73,0,0,0,.57-2.69l.93-5.43c.16-.91.34-1.81.47-2.71l.27-2.74.53-5.48.12-5.49a84.48,84.48,0,0,0-2.5-21.77l-.73-2.65c-.13-.44-.24-.88-.37-1.32l-.47-1.3-.92-2.59c-.33-.85-.73-1.68-1.08-2.52A44.79,44.79,0,0,0,122,291.72Z" style="fill:#37474f"></path><path d="M126.56,293a30.88,30.88,0,0,1,4.2,3.72A45.08,45.08,0,0,1,134.4,301a49.11,49.11,0,0,1,5.63,9.76,56.44,56.44,0,0,1,4.48,22c.06,1.88-.11,3.76-.19,5.64s-.33,3.75-.67,5.61l-.45,2.78-.59,2.76c-.34,1.85-.92,3.64-1.4,5.45a110.67,110.67,0,0,1-8.54,20.77l2.27-5.13,2.08-5.2,1.88-5.28c.53-1.79,1.11-3.56,1.59-5.36l.68-2.71c.24-.9.44-1.81.62-2.72l.56-2.74.42-2.76c.33-1.83.42-3.69.63-5.54.06-1.85.2-3.71.14-5.57a56.94,56.94,0,0,0-4.2-21.72,48.77,48.77,0,0,0-5.32-9.78A40.84,40.84,0,0,0,126.56,293Z" style="fill:#37474f"></path><path d="M108.72,316.42a49,49,0,0,1,3.19,4.82h-.58c.54-1,1.11-1.93,1.71-2.87.3-.47.6-.94.91-1.41s.64-.92,1-1.36c-.2.52-.44,1-.67,1.54s-.49,1-.74,1.5c-.51,1-1,2-1.61,2.93l-.29.51-.29-.5A49.86,49.86,0,0,1,108.72,316.42Z" style="fill:#37474f"></path><path d="M111.38,313.93a20.75,20.75,0,0,1,.24,7.48,20.75,20.75,0,0,1-.24-7.48Z" style="fill:#37474f"></path><path d="M133.73,290.85a48.5,48.5,0,0,1,.05,5.78l-.49-.31c1-.52,2-1,3-1.49l1.53-.68c.52-.2,1-.42,1.57-.61-.46.33-.94.62-1.41.93s-.95.57-1.44.85q-1.46.84-2.94,1.59l-.52.26,0-.57A48.57,48.57,0,0,1,133.73,290.85Z" style="fill:#37474f"></path><path d="M137.31,290.2a20.83,20.83,0,0,1-3.86,6.41,18.19,18.19,0,0,1,1.64-3.38A18.54,18.54,0,0,1,137.31,290.2Z" style="fill:#37474f"></path><path d="M127.74,308.13a47.83,47.83,0,0,1,2.61,5.15l-.58-.07c.66-.9,1.33-1.79,2-2.66l1.07-1.29c.38-.41.74-.84,1.14-1.24-.27.5-.57,1-.85,1.45s-.6.95-.91,1.41c-.63.93-1.27,1.84-1.94,2.73l-.35.47-.22-.54A47.92,47.92,0,0,1,127.74,308.13Z" style="fill:#37474f"></path><path d="M130.66,306a18.19,18.19,0,0,1,0,3.76,17.51,17.51,0,0,1-.65,3.7,21.3,21.3,0,0,1,.62-7.46Z" style="fill:#37474f"></path><path d="M116.89,365.16a47.84,47.84,0,0,1,3.19,4.82h-.58q.81-1.46,1.71-2.88c.29-.47.6-.94.91-1.4s.64-.92,1-1.37c-.2.53-.44,1-.67,1.54s-.49,1-.74,1.51c-.52,1-1,2-1.61,2.93l-.29.51-.29-.51A48.75,48.75,0,0,1,116.89,365.16Z" style="fill:#37474f"></path><path d="M119.55,362.66a19.81,19.81,0,0,1,.46,3.73,18.17,18.17,0,0,1-.22,3.75,20.75,20.75,0,0,1-.24-7.48Z" style="fill:#37474f"></path><path d="M91.49,299.37a46.82,46.82,0,0,1,1.66,5.53l-.55-.17c.8-.77,1.62-1.52,2.46-2.26l1.29-1.08c.44-.34.87-.69,1.33-1-.35.44-.73.86-1.09,1.28s-.76.82-1.15,1.22c-.77.8-1.57,1.59-2.38,2.35l-.43.4-.13-.57A49.27,49.27,0,0,1,91.49,299.37Z" style="fill:#37474f"></path><path d="M94.76,297.74a19.07,19.07,0,0,1-.64,3.71A18.48,18.48,0,0,1,92.83,305a18.33,18.33,0,0,1,.63-3.71A19.22,19.22,0,0,1,94.76,297.74Z" style="fill:#37474f"></path><path d="M150.81,320.16a47.94,47.94,0,0,1-.61,5.74l-.44-.37c1-.4,2.08-.78,3.14-1.13l1.6-.5c.54-.14,1.08-.3,1.63-.42-.49.27-1,.5-1.5.75l-1.53.69c-1,.44-2.06.85-3.11,1.24l-.55.2.1-.57A49.74,49.74,0,0,1,150.81,320.16Z" style="fill:#37474f"></path><path d="M154.45,319.92a20.87,20.87,0,0,1-4.58,5.93,20.87,20.87,0,0,1,4.58-5.93Z" style="fill:#37474f"></path><path d="M97.73,341.39a50.8,50.8,0,0,1,3.24,4.78h-.58c.53-1,1.09-1.94,1.67-2.89.3-.48.6-1,.91-1.42s.62-.92,1-1.37c-.2.52-.44,1-.66,1.54s-.47,1-.72,1.52c-.5,1-1,2-1.57,2.95l-.29.51-.29-.5A47.93,47.93,0,0,1,97.73,341.39Z" style="fill:#37474f"></path><path d="M100.35,338.87a20.45,20.45,0,0,1,.33,7.48,18.27,18.27,0,0,1-.5-3.73A18.85,18.85,0,0,1,100.35,338.87Z" style="fill:#37474f"></path><path d="M77.79,354.16a50.08,50.08,0,0,1,4.79,3.22l-.54.22c.13-1.1.29-2.21.48-3.31.09-.55.19-1.1.3-1.64s.23-1.1.38-1.64c0,.56,0,1.12,0,1.68s-.06,1.11-.11,1.67c-.09,1.11-.2,2.22-.35,3.33l-.08.58-.46-.36A47.13,47.13,0,0,1,77.79,354.16Z" style="fill:#37474f"></path><path d="M79.28,350.83a19,19,0,0,1,1.86,3.27,19.36,19.36,0,0,1,1.24,3.55,18.33,18.33,0,0,1-1.86-3.27A18,18,0,0,1,79.28,350.83Z" style="fill:#37474f"></path><path d="M72.84,303.48a47.81,47.81,0,0,1,5.31,2.26l-.48.32c-.08-1.11-.13-2.22-.16-3.34,0-.56,0-1.12,0-1.67s0-1.12.06-1.68c.12.55.2,1.1.29,1.65s.15,1.11.21,1.66c.12,1.11.22,2.23.28,3.34l0,.58-.51-.26A47,47,0,0,1,72.84,303.48Z" style="fill:#37474f"></path><path d="M73.67,299.93A20.75,20.75,0,0,1,78,306a17.48,17.48,0,0,1-2.45-2.86A18.65,18.65,0,0,1,73.67,299.93Z" style="fill:#37474f"></path><path d="M140.91,340.11a48.81,48.81,0,0,1,2.72,5.09l-.58-.05c.63-.92,1.29-1.82,2-2.7.34-.44.69-.88,1-1.31s.72-.86,1.1-1.27c-.25.5-.54,1-.82,1.47s-.58,1-.88,1.43c-.6.94-1.22,1.86-1.87,2.77l-.34.47-.24-.53A47.87,47.87,0,0,1,140.91,340.11Z" style="fill:#37474f"></path><path d="M143.79,337.87a18.21,18.21,0,0,1,.1,3.76,17.55,17.55,0,0,1-.57,3.71,21.05,21.05,0,0,1,.47-7.47Z" style="fill:#37474f"></path><path d="M110.32,292.81s-15.6-11.78-8.63-17.1c2.42-1.85,7.84,4,8.63,10.54.8-6.53,6.22-12.39,8.64-10.54C125.92,281,110.32,292.81,110.32,292.81Z" style="fill:#FFC727"></path><path d="M110.32,292.81s-15.6-11.78-8.63-17.1c2.42-1.85,7.84,4,8.63,10.54.8-6.53,6.22-12.39,8.64-10.54C125.92,281,110.32,292.81,110.32,292.81Z" style="opacity:0.2"></path><path d="M110.32,292.81c-9.42,0-16.4-8.58-14.27-12.32,2.42-4.26,10.89,5.77,10.89,5.77s-3.16-14.16,3.38-14.16,3.39,14.16,3.39,14.16,8.46-10,10.89-5.77C126.73,284.23,119.74,292.81,110.32,292.81Z" style="fill:#FFC727"></path><polygon points="78.04 372.52 143.63 372.52 137.02 427.36 84.64 427.36 78.04 372.52" style="fill:#FFC727"></polygon><polygon points="78.04 372.52 79.53 384.89 142.5 381.86 143.63 372.52 78.04 372.52" style="opacity:0.1"></polygon><rect x="73.92" y="365.59" width="73.83" height="9.81" style="fill:#FFC727"></rect></g><g id="freepik--Table--inject-45"><path d="M65.76,427.36c198.12-.61,420.36-.61,618.48,0-198.12.62-420.36.61-618.48,0Z" style="fill:#263238"></path></g><g id="freepik--Keyboard--inject-45"><polygon points="166.76 423.07 414.51 423.07 427.59 461.89 157.79 461.89 166.76 423.07" style="fill:#ebebeb"></polygon><polygon points="166.76 423.07 414.51 423.07 427.59 461.89 157.79 461.89 166.76 423.07" style="fill:#FFC727"></polygon><polygon points="166.76 423.07 414.51 423.07 427.59 461.89 157.79 461.89 166.76 423.07" style="fill:#fff;opacity:0.7000000000000001"></polygon><polygon points="168.28 435.28 191.72 435.28 190.7 439.15 167.39 439.15 168.28 435.28" style="fill:#fff"></polygon><polygon points="193.81 435.28 208.73 435.28 208.22 439.15 192.8 439.15 193.81 435.28" style="fill:#fff"></polygon><polygon points="210.79 435.28 226.43 435.28 226.13 439.15 210.26 439.15 210.79 435.28" style="fill:#fff"></polygon><polygon points="228.46 435.28 243.83 435.28 243.74 439.15 228.19 439.15 228.46 435.28" style="fill:#fff"></polygon><polygon points="260.99 435.28 261.23 439.15 245.77 439.15 245.86 435.28 260.99 435.28" style="fill:#fff"></polygon><polygon points="278.63 435.28 278.87 439.15 263.29 439.15 263.05 435.28 278.63 435.28" style="fill:#fff"></polygon><polygon points="295.85 435.28 296.08 439.15 280.9 439.15 280.66 435.28 295.85 435.28" style="fill:#fff"></polygon><polygon points="313.51 435.28 314.08 439.15 298.12 439.15 297.88 435.28 313.51 435.28" style="fill:#fff"></polygon><polygon points="331.18 435.28 331.72 439.15 316.14 439.15 315.58 435.28 331.18 435.28" style="fill:#fff"></polygon><polygon points="349.12 435.28 349.66 439.15 333.78 439.15 333.24 435.28 349.12 435.28" style="fill:#fff"></polygon><polygon points="365.92 435.28 366.46 439.15 351.72 439.15 351.18 435.28 365.92 435.28" style="fill:#fff"></polygon><polygon points="384.27 435.28 384.81 439.15 368.52 439.15 367.95 435.28 384.27 435.28" style="fill:#fff"></polygon><polygon points="401.85 435.28 402.42 439.15 386.88 439.15 386.31 435.28 401.85 435.28" style="fill:#fff"></polygon><polygon points="415.66 439.15 404.45 439.15 403.92 435.28 414.35 435.28 415.66 439.15" style="fill:#fff"></polygon><polygon points="164.46 451.81 179.67 451.81 178.42 458.02 163.02 458.02 164.46 451.81" style="fill:#fff"></polygon><polygon points="181.77 451.81 197.04 451.81 196.21 458.02 180.48 458.02 181.77 451.81" style="fill:#fff"></polygon><polygon points="199.1 451.81 215.19 451.81 214.35 458.02 198.24 458.02 199.1 451.88 199.1 451.81" style="fill:#fff"></polygon><polygon points="217.25 451.81 237.28 451.81 236.83 458.02 216.38 458.02 217.25 451.88 217.25 451.81" style="fill:#fff"></polygon><polygon points="326.22 451.88 327.08 458.02 238.9 458.02 239.34 451.81 326.22 451.81 326.22 451.88" style="fill:#fff"></polygon><polygon points="349.66 451.88 350.52 458.02 329.15 458.02 328.28 451.81 349.66 451.81 349.66 451.88" style="fill:#fff"></polygon><polygon points="367.59 451.88 368.46 458.02 352.59 458.02 351.72 451.81 367.59 451.81 367.59 451.88" style="fill:#fff"></polygon><polygon points="386.34 451.88 387.2 458.02 370.52 458.02 369.66 451.81 386.34 451.81 386.34 451.88" style="fill:#fff"></polygon><polygon points="404.42 451.88 405.29 458.02 389.27 458.02 388.37 451.81 404.42 451.81 404.42 451.88" style="fill:#fff"></polygon><polygon points="422.03 458.02 407.35 458.02 406.46 451.81 419.94 451.81 422.03 458.02" style="fill:#fff"></polygon><polygon points="165.8 445.98 202.69 445.98 202.03 450.64 164.73 450.64 165.8 445.98" style="fill:#fff"></polygon><polygon points="221.32 445.98 220.69 450.64 204.07 450.64 204.72 445.98 221.32 445.98" style="fill:#fff"></polygon><polygon points="238 445.98 237.67 450.64 222.72 450.64 223.38 445.98 238 445.98" style="fill:#fff"></polygon><polygon points="255.34 445.98 255.25 450.64 239.73 450.64 240.06 445.98 255.34 445.98" style="fill:#fff"></polygon><polygon points="273.78 450.64 257.28 450.64 257.37 445.98 273.48 445.98 273.78 450.64" style="fill:#fff"></polygon><polygon points="291.63 450.64 275.81 450.64 275.52 445.98 291.33 445.98 291.63 450.64" style="fill:#fff"></polygon><polygon points="309.45 450.64 293.66 450.64 293.36 445.98 309.15 445.98 309.45 450.64" style="fill:#fff"></polygon><polygon points="327.59 450.64 311.48 450.64 311.18 445.98 326.94 445.98 327.59 450.64" style="fill:#fff"></polygon><polygon points="345.44 450.64 329.66 450.64 329 445.98 344.78 445.98 345.44 450.64" style="fill:#fff"></polygon><polygon points="362.81 450.64 347.47 450.64 346.82 445.98 362.15 445.98 362.15 446.05 362.81 450.64" style="fill:#fff"></polygon><polygon points="380.36 450.64 364.87 450.64 364.21 445.98 379.7 445.98 380.36 450.64" style="fill:#fff"></polygon><polygon points="401.73 450.64 382.42 450.64 381.76 445.98 401.07 445.98 401.73 450.64" style="fill:#fff"></polygon><polygon points="419.52 450.64 403.77 450.64 403.11 445.98 417.97 445.98 419.52 450.64" style="fill:#fff"></polygon><polygon points="167.15 440.15 195.16 440.15 193.96 444.81 166.07 444.81 167.15 440.15" style="fill:#fff"></polygon><polygon points="197.25 440.15 212.8 440.15 212.14 444.81 196.06 444.81 197.25 440.15" style="fill:#fff"></polygon><polygon points="214.86 440.15 230.79 440.15 230.44 444.81 214.2 444.81 214.86 440.15" style="fill:#fff"></polygon><polygon points="232.83 440.15 248.52 440.15 248.43 444.81 232.5 444.81 232.83 440.15" style="fill:#fff"></polygon><polygon points="265.41 440.15 265.71 444.81 250.47 444.81 250.55 440.15 265.41 440.15" style="fill:#fff"></polygon><polygon points="283.29 440.15 283.59 444.81 267.74 444.81 267.48 440.15 283.29 440.15" style="fill:#fff"></polygon><polygon points="300.48 440.15 300.78 444.81 285.62 444.81 285.35 440.15 300.48 440.15" style="fill:#fff"></polygon><polygon points="318.63 440.15 319.31 444.81 302.84 444.81 302.54 440.15 318.63 440.15" style="fill:#fff"></polygon><polygon points="335.96 440.15 336.62 444.81 321.38 444.81 320.69 440.15 335.96 440.15" style="fill:#fff"></polygon><polygon points="354.08 440.15 354.74 444.81 338.65 444.81 338 440.15 354.08 440.15" style="fill:#fff"></polygon><polygon points="371.45 440.15 372.11 444.81 356.8 444.81 356.14 440.15 371.45 440.15" style="fill:#fff"></polygon><polygon points="388.79 440.15 389.48 444.81 374.14 444.81 373.48 440.15 388.79 440.15" style="fill:#fff"></polygon><polygon points="417.58 444.81 391.51 444.81 390.85 440.15 415.99 440.15 417.58 444.81" style="fill:#fff"></polygon><polygon points="169.39 430.41 183.65 430.41 182.63 434.28 168.49 434.28 169.39 430.41" style="fill:#fff"></polygon><polygon points="185.71 430.41 201.53 430.41 200.96 434.28 184.69 434.28 185.71 430.41" style="fill:#fff"></polygon><polygon points="203.59 430.41 218.78 430.41 218.51 434.28 203.02 434.28 203.59 430.41" style="fill:#fff"></polygon><polygon points="220.84 430.41 236.09 430.41 236.03 434.28 220.57 434.28 220.84 430.41" style="fill:#fff"></polygon><polygon points="253.16 430.41 253.39 434.28 238.06 434.28 238.15 430.41 253.16 430.41" style="fill:#fff"></polygon><polygon points="270.49 430.41 270.73 434.28 255.46 434.28 255.22 430.41 270.49 430.41" style="fill:#fff"></polygon><polygon points="287.68 430.41 287.92 434.28 272.8 434.28 272.56 430.41 287.68 430.41" style="fill:#fff"></polygon><polygon points="305.17 430.41 305.71 434.28 289.99 434.28 289.75 430.41 305.17 430.41" style="fill:#fff"></polygon><polygon points="322.63 430.41 323.17 434.28 307.77 434.28 307.24 430.41 322.63 430.41" style="fill:#fff"></polygon><polygon points="340.21 430.41 340.75 434.28 325.23 434.28 324.69 430.41 340.21 430.41" style="fill:#fff"></polygon><polygon points="357.64 430.41 358.21 434.28 342.81 434.28 342.24 430.41 357.64 430.41" style="fill:#fff"></polygon><polygon points="374.89 430.41 375.45 434.28 360.27 434.28 359.7 430.41 374.89 430.41" style="fill:#fff"></polygon><polygon points="392.7 430.41 393.27 434.28 377.49 434.28 376.95 430.41 392.7 430.41" style="fill:#fff"></polygon><polygon points="414.02 434.28 395.31 434.28 394.77 430.41 412.7 430.41 414.02 434.28" style="fill:#fff"></polygon><polygon points="170.53 425.51 185.29 425.51 184.25 429.4 169.63 429.4 170.53 425.51" style="fill:#fff"></polygon><polygon points="187.39 425.51 203.38 425.51 202.84 429.4 186.34 429.4 187.39 425.51" style="fill:#fff"></polygon><polygon points="205.44 425.51 220.72 425.51 220.42 429.4 204.91 429.4 205.44 425.51" style="fill:#fff"></polygon><polygon points="222.75 425.51 238.9 425.51 238.81 429.4 222.48 429.4 222.75 425.51" style="fill:#fff"></polygon><polygon points="255.73 425.51 255.97 429.4 240.84 429.4 240.93 425.51 255.73 425.51" style="fill:#fff"></polygon><polygon points="274.41 425.51 274.65 429.4 258.03 429.4 257.76 425.51 274.41 425.51" style="fill:#fff"></polygon><polygon points="292.32 425.51 292.56 429.4 276.71 429.4 276.44 425.51 292.32 425.51" style="fill:#fff"></polygon><polygon points="309.78 425.51 310.34 429.4 294.59 429.4 294.35 425.51 309.78 425.51" style="fill:#fff"></polygon><polygon points="327.8 425.51 328.37 429.4 312.41 429.4 311.84 425.51 327.8 425.51" style="fill:#fff"></polygon><polygon points="345.56 425.51 346.13 429.4 330.43 429.4 329.87 425.51 345.56 425.51" style="fill:#fff"></polygon><polygon points="363.68 425.51 364.25 429.4 348.19 429.4 347.62 425.51 363.68 425.51" style="fill:#fff"></polygon><polygon points="381.43 425.51 382 429.4 366.31 429.4 365.74 425.51 381.43 425.51" style="fill:#fff"></polygon><polygon points="399.55 425.51 400.12 429.4 384.06 429.4 383.5 425.51 399.55 425.51" style="fill:#fff"></polygon><polygon points="412.38 429.4 402.18 429.4 401.61 425.51 411.06 425.51 412.38 429.4" style="fill:#fff"></polygon><rect x="157.79" y="461.89" width="269.8" height="5.08" style="fill:#FFC727"></rect><rect x="157.79" y="461.89" width="269.8" height="5.08" style="fill:#fff;opacity:0.5"></rect></g><g id="freepik--Mouse--inject-45"><path d="M447.12,428.94s16.38,22,43.66,32.85,24.4-22.65,24.4-22.65-35-21.95-68.06-10.2" style="fill:#b3b3b3"></path><path d="M447.12,428.94s16.38,22,43.66,32.85,24.4-22.65,24.4-22.65-35-21.95-68.06-10.2" style="fill:#FFC727"></path><path d="M447.12,428.94s16.38,22,43.66,32.85,24.4-22.65,24.4-22.65-35-21.95-68.06-10.2" style="fill:#fff;opacity:0.5"></path><path d="M447.12,428.94c1.55-1.77,7.54-6.65,20.17-9.31s29.27-5.33,49,7.54c21.5,14,21.42,24.38,14.11,31s-33,12-44.48,0-15.74-18.4-22.62-23.27S447.12,428.94,447.12,428.94Z" style="fill:#FFC727"></path><path d="M447.12,428.94c1.55-1.77,7.54-6.65,20.17-9.31s29.27-5.33,49,7.54c21.5,14,21.42,24.38,14.11,31s-33,12-44.48,0-15.74-18.4-22.62-23.27S447.12,428.94,447.12,428.94Z" style="fill:#fff;opacity:0.7000000000000001"></path></g><g id="freepik--Sparkles--inject-45"><path d="M93.66,70.1a8.52,8.52,0,0,1,0-8.1,8.52,8.52,0,0,1,0,8.1Z" style="fill:#FFC727"></path><path d="M101.27,73.24a8.41,8.41,0,0,1,5.64-5.73,8.39,8.39,0,0,1-5.64,5.73Z" style="fill:#FFC727"></path><path d="M104.47,80.92a8.29,8.29,0,0,1,8,0,8.29,8.29,0,0,1-8,0Z" style="fill:#FFC727"></path><path d="M101.39,88.65A8.43,8.43,0,0,1,107,94.38a8.41,8.41,0,0,1-5.64-5.73Z" style="fill:#FFC727"></path><path d="M93.82,91.9a8.54,8.54,0,0,1,0,8.11,8.54,8.54,0,0,1,0-8.11Z" style="fill:#FFC727"></path><path d="M86.21,88.77a8.41,8.41,0,0,1-5.64,5.73,8.43,8.43,0,0,1,5.64-5.73Z" style="fill:#FFC727"></path><path d="M83,81.09a8.29,8.29,0,0,1-8,0,8.29,8.29,0,0,1,8,0Z" style="fill:#FFC727"></path><path d="M86.1,73.35a8.4,8.4,0,0,1-5.65-5.73,8.44,8.44,0,0,1,5.65,5.73Z" style="fill:#FFC727"></path><path d="M491.56,252.55a8.52,8.52,0,0,1,0-8.1,8.52,8.52,0,0,1,0,8.1Z" style="fill:#FFC727"></path><path d="M499.17,255.68a8.44,8.44,0,0,1,5.64-5.73,8.37,8.37,0,0,1-5.64,5.73Z" style="fill:#FFC727"></path><path d="M502.37,263.37a8.29,8.29,0,0,1,8,0,8.29,8.29,0,0,1-8,0Z" style="fill:#FFC727"></path><path d="M499.29,271.1a8.43,8.43,0,0,1,5.64,5.73,8.39,8.39,0,0,1-5.64-5.73Z" style="fill:#FFC727"></path><path d="M491.72,274.35a8.52,8.52,0,0,1,0,8.1,8.52,8.52,0,0,1,0-8.1Z" style="fill:#FFC727"></path><path d="M484.11,271.22a8.44,8.44,0,0,1-5.64,5.73,8.39,8.39,0,0,1,5.64-5.73Z" style="fill:#FFC727"></path><path d="M480.91,263.53a8.29,8.29,0,0,1-8,0,8.29,8.29,0,0,1,8,0Z" style="fill:#FFC727"></path><path d="M484,255.8a8.41,8.41,0,0,1-5.64-5.73A8.39,8.39,0,0,1,484,255.8Z" style="fill:#FFC727"></path><path d="M471.28,293.5a3,3,0,0,1,0-4.47,3,3,0,0,1,0,4.47Z" style="fill:#FFC727"></path><path d="M475.49,295.23a2.94,2.94,0,0,1,3.11-3.16,2.94,2.94,0,0,1-3.11,3.16Z" style="fill:#FFC727"></path><path d="M477.25,299.47a2.93,2.93,0,0,1,4.41,0,2.91,2.91,0,0,1-4.41,0Z" style="fill:#FFC727"></path><path d="M475.55,303.74a2.94,2.94,0,0,1,3.11,3.16,2.94,2.94,0,0,1-3.11-3.16Z" style="fill:#FFC727"></path><path d="M471.37,305.53a3,3,0,0,1,0,4.48,3,3,0,0,1,0-4.48Z" style="fill:#FFC727"></path><path d="M467.17,303.8a3,3,0,0,1-3.11,3.17,3,3,0,0,1,3.11-3.17Z" style="fill:#FFC727"></path><path d="M465.4,299.56a2.9,2.9,0,0,1-4.4,0,2.92,2.92,0,0,1,4.4,0Z" style="fill:#FFC727"></path><path d="M467.11,295.3a3,3,0,0,1-3.12-3.17,3,3,0,0,1,3.12,3.17Z" style="fill:#FFC727"></path><path d="M74.69,112.43a3,3,0,0,1,0-4.47,3,3,0,0,1,0,4.47Z" style="fill:#FFC727"></path><path d="M78.89,114.16A3,3,0,0,1,82,111a3,3,0,0,1-3.11,3.16Z" style="fill:#FFC727"></path><path d="M80.65,118.4a2.93,2.93,0,0,1,4.41,0,2.91,2.91,0,0,1-4.41,0Z" style="fill:#FFC727"></path><path d="M79,122.67a3,3,0,0,1,3.12,3.17A3,3,0,0,1,79,122.67Z" style="fill:#FFC727"></path><path d="M74.77,124.47a3,3,0,0,1,0,4.47,3,3,0,0,1,0-4.47Z" style="fill:#FFC727"></path><path d="M70.57,122.74a3,3,0,0,1-3.11,3.16,3,3,0,0,1,3.11-3.16Z" style="fill:#FFC727"></path><path d="M68.81,118.5a2.93,2.93,0,0,1-4.41,0,2.91,2.91,0,0,1,4.41,0Z" style="fill:#FFC727"></path><path d="M70.51,114.23a3,3,0,0,1-3.12-3.17,3,3,0,0,1,3.12,3.17Z" style="fill:#FFC727"></path><path d="M675.23,179.13a3,3,0,0,1,0-4.47,3,3,0,0,1,0,4.47Z" style="fill:#FFC727"></path><path d="M679.43,180.86a3,3,0,0,1,3.11-3.16,3,3,0,0,1-3.11,3.16Z" style="fill:#FFC727"></path><path d="M681.19,185.1a2.93,2.93,0,0,1,4.41,0,2.91,2.91,0,0,1-4.41,0Z" style="fill:#FFC727"></path><path d="M679.49,189.37a3,3,0,0,1,3.12,3.17,3,3,0,0,1-3.12-3.17Z" style="fill:#FFC727"></path><path d="M675.31,191.17a3,3,0,0,1,0,4.47,3,3,0,0,1,0-4.47Z" style="fill:#FFC727"></path><path d="M671.11,189.44A3,3,0,0,1,668,192.6a3,3,0,0,1,3.11-3.16Z" style="fill:#FFC727"></path><path d="M669.35,185.2a2.93,2.93,0,0,1-4.41,0,2.91,2.91,0,0,1,4.41,0Z" style="fill:#FFC727"></path><path d="M671.05,180.93a3,3,0,0,1-3.12-3.17,3,3,0,0,1,3.12,3.17Z" style="fill:#FFC727"></path></g></svg>
